<?xml version="1.0" encoding="UTF-8"?>
<svg id="Layer_1" xmlns="http://www.w3.org/2000/svg" xmlns:xlink="http://www.w3.org/1999/xlink" version="1.1" viewBox="0 0 425.196991 341.9169769">
  <!-- Generator: Adobe Illustrator 29.0.0, SVG Export Plug-In . SVG Version: 2.1.0 Build 186)  -->
  <defs>
    <style>
      .st0, .st1, .st2, .st3, .st4, .st5, .st6, .st7, .st8, .st9, .st10, .st11 {
        fill: none;
      }

      .st1, .st2, .st3, .st4, .st5, .st6, .st7, .st8, .st9, .st10, .st11 {
        stroke-miterlimit: 10;
      }

      .st1, .st3, .st7, .st10 {
        stroke: #1e1f1d;
      }

      .st1, .st6, .st8 {
        stroke-width: 1.502px;
      }

      .st2 {
        stroke-dasharray: 1.126 .751;
      }

      .st2, .st3, .st4, .st9 {
        stroke-width: .375px;
      }

      .st2, .st4, .st5, .st6, .st8, .st9, .st11 {
        stroke: #000;
      }

      .st2, .st4, .st5, .st7, .st8, .st10 {
        stroke-linecap: round;
      }

      .st5, .st11 {
        stroke-width: .751px;
      }

      .st12 {
        fill: #f6f6f6;
      }

      .st13 {
        clip-path: url(#clippath-10);
      }

      .st7 {
        stroke-width: 2.253px;
      }

      .st14 {
        clip-path: url(#clippath-1);
      }

      .st15 {
        clip-path: url(#clippath-3);
      }

      .st16 {
        clip-path: url(#clippath-4);
      }

      .st17 {
        clip-path: url(#clippath-2);
      }

      .st18 {
        clip-path: url(#clippath-7);
      }

      .st19 {
        clip-path: url(#clippath-6);
      }

      .st20 {
        clip-path: url(#clippath-9);
      }

      .st21 {
        clip-path: url(#clippath-8);
      }

      .st22 {
        clip-path: url(#clippath-5);
      }

      .st23 {
        fill: #fff;
      }

      .st10 {
        stroke-width: 3.0039999px;
      }

      .st24 {
        opacity: .5;
      }

      .st25 {
        fill: #ededed;
      }

      .st26 {
        clip-path: url(#clippath);
      }

      .st27 {
        fill: #010203;
        font-family: Roboto-Bold, Roboto;
        font-size: 9.5855999px;
        font-weight: 700;
      }
    </style>
    <clipPath id="clippath">
      <rect class="st0" width="421.7799988" height="341.9169769"/>
    </clipPath>
    <clipPath id="clippath-1">
      <rect class="st0" width="421.7799988" height="341.9169769"/>
    </clipPath>
    <clipPath id="clippath-2">
      <rect class="st0" x="250.6210022" y="206.0719604" width="7.644989" height="9.8359985"/>
    </clipPath>
    <clipPath id="clippath-3">
      <rect class="st0" x="250.6210022" y="206.0719604" width="7.6440125" height="9.8359985"/>
    </clipPath>
    <clipPath id="clippath-4">
      <rect class="st0" width="421.7799988" height="341.9169769"/>
    </clipPath>
    <clipPath id="clippath-5">
      <rect class="st0" x="186.5709839" y="140.8909607" width="108.9760132" height="158.9640045"/>
    </clipPath>
    <clipPath id="clippath-6">
      <rect class="st0" x="186.5709839" y="140.8909607" width="108.9769897" height="158.9640045"/>
    </clipPath>
    <clipPath id="clippath-7">
      <rect class="st0" width="421.7799988" height="341.9169769"/>
    </clipPath>
    <clipPath id="clippath-8">
      <rect class="st0" width="421.7799988" height="341.9169769"/>
    </clipPath>
    <clipPath id="clippath-9">
      <rect class="st0" width="421.7799988" height="341.9169769"/>
    </clipPath>
    <clipPath id="clippath-10">
      <rect class="st0" width="421.7799988" height="341.9169769"/>
    </clipPath>
  </defs>
  <rect class="st12" width="425.196991" height="341.9169769"/>
  <line class="st4" x1="295.5476074" y1="107.7739563" x2="316.7825928" y2="120.0359497"/>
  <g class="st26">
    <path class="st23" d="M295.939209,194.5796814c.1400146.0570068.2820129.1140137.4240112.1700134.0419922.0169983.0859985.0319824.1289978.0489807.0969849.0370178.1929932.072998.289978.1100159.0859985.0319824.1720276.0650024.256012.0969849.0480042.0180054.0970154.0339966.144989.0509949.1809998.0660095.3630066.1300049.5450134.1930237.071991.0249939.1419983.0519714.2149963.0759888.0240173.0079956.0469971.0149841.0710144.0220032.3669739.1239929.7319946.2409973,1.0950012.348999.072998.0230103.1469727.0440063.2209778.0660095.3710022.1089783.7390137.2119751,1.0970154.3029785h.0029907c.006012.0020142.0110168.0030212.0159912.0039978.3220215.0810242.6330261.1520081.9380188.2170105.0409851.0079956.0839844.019989.1239929.0279846.0499878.0110168.0969849.0180054.1470032.0280151.1409912.0279846.2779846.053009.4140015.0780029.0619812.0100098.1260071.0239868.1869812.0350037.0450134.0069885.085022.0119934.1290283.0189819.0849915.0130005.1689758.0250244.2519836.0370178.0620117.0079956.1279907.019989.1879883.0279846.0610046.0079956.1180115.0130005.178009.0200195.0639954.0069885.1260071.0139771.1870117.0209961.0369873.0029907.0759888.0090027.1119995.0119934.1329956.0119934.2630005.0209961.3890076.0270081l.0229797.0019836c.125.006012.2449951.0090027.3569946.0090027h.0190125c.0310059,0,.0589905-.0019836.0889893-.0019836.0700073-.0010071.1410217-.0020142.2060242-.0050049.0179749-.0010071.0299988-.0030212.0469971-.0039978.0369873-.0030212.072998-.006012.1099854-.0090027.0410156-.0029907.0840149-.006012.1230164-.0100098.0239868-.0029907.0449829-.0079956.0679932-.0109863.0359802-.0050049.0709839-.0100098.1059875-.0160217.0240173-.0049744.0509949-.0079956.0740051-.0119934.0289917-.0059814.053009-.0140076.0809937-.0209961.0320129-.0079956.0650024-.0149841.0939941-.0239868.0140076-.0050049.0320129-.0080261.0450134-.0120239.0289917-.0090027.052002-.0209961.0780029-.0309753.0299988-.0110168.0599976-.0220032.0859985-.0350037.0090027-.0039978.019989-.007019.0279846-.0120239.0220032-.0099792.0370178-.0239868.0570068-.0349731.0289917-.0180054.059021-.0350037.085022-.0540161.0059814-.0050049.0149841-.0090027.0209961-.0140076.0119934-.0099792.0179749-.0229797.0299988-.0339966.0279846-.0269775.0539856-.0559998.0740051-.0859985.0059814-.0090027.0169983-.0149841.0219727-.0249939.0130005-.0230103.0250244-.0480042.0350037-.072998l54.8960266-152.8340149c1.197998-3.3349915-.5080261-7.0149841-3.8280029-8.2550049-3.3180237-1.2399902-7.0160217.4170227-8.3010254,3.7180176l-55.9069824,143.6889954"/>
    <path class="st6" d="M295.939209,194.5796814c.1400146.0570068.2820129.1140137.4240112.1700134.0419922.0169983.0859985.0319824.1289978.0489807.0969849.0370178.1929932.072998.289978.1100159.0859985.0319824.1720276.0650024.256012.0969849.0480042.0180054.0970154.0339966.144989.0509949.1809998.0660095.3630066.1300049.5450134.1930237.071991.0249939.1419983.0519714.2149963.0759888.0240173.0079956.0469971.0149841.0710144.0220032.3669739.1239929.7319946.2409973,1.0950012.348999.072998.0230103.1469727.0440063.2209778.0660095.3710022.1089783.7390137.2119751,1.0970154.3029785h.0029907c.006012.0020142.0110168.0030212.0159912.0039978.3220215.0810242.6330261.1520081.9380188.2170105.0409851.0079956.0839844.019989.1239929.0279846.0499878.0110168.0969849.0180054.1470032.0280151.1409912.0279846.2779846.053009.4140015.0780029.0619812.0100098.1260071.0239868.1869812.0350037.0450134.0069885.085022.0119934.1290283.0189819.0849915.0130005.1689758.0250244.2519836.0370178.0620117.0079956.1279907.019989.1879883.0279846.0610046.0079956.1180115.0130005.178009.0200195.0639954.0069885.1260071.0139771.1870117.0209961.0369873.0029907.0759888.0090027.1119995.0119934.1329956.0119934.2630005.0209961.3890076.0270081l.0229797.0019836c.125.006012.2449951.0090027.3569946.0090027h.0190125c.0310059,0,.0589905-.0019836.0889893-.0019836.0700073-.0010071.1410217-.0020142.2060242-.0050049.0179749-.0010071.0299988-.0030212.0469971-.0039978.0369873-.0030212.072998-.006012.1099854-.0090027.0410156-.0029907.0840149-.006012.1230164-.0100098.0239868-.0029907.0449829-.0079956.0679932-.0109863.0359802-.0050049.0709839-.0100098.1059875-.0160217.0240173-.0049744.0509949-.0079956.0740051-.0119934.0289917-.0059814.053009-.0140076.0809937-.0209961.0320129-.0079956.0650024-.0149841.0939941-.0239868.0140076-.0050049.0320129-.0080261.0450134-.0120239.0289917-.0090027.052002-.0209961.0780029-.0309753.0299988-.0110168.0599976-.0220032.0859985-.0350037.0090027-.0039978.019989-.007019.0279846-.0120239.0220032-.0099792.0370178-.0239868.0570068-.0349731.0289917-.0180054.059021-.0350037.085022-.0540161.0059814-.0050049.0149841-.0090027.0209961-.0140076.0119934-.0099792.0179749-.0229797.0299988-.0339966.0279846-.0269775.0539856-.0559998.0740051-.0859985.0059814-.0090027.0169983-.0149841.0219727-.0249939.0130005-.0230103.0250244-.0480042.0350037-.072998l54.8960266-152.8340149c1.197998-3.3349915-.5080261-7.0149841-3.8280029-8.2550049-3.3180237-1.2399902-7.0160217.4170227-8.3010254,3.7180176l-55.9069824,143.6889954"/>
  </g>
  <polyline class="st6" points="299.1088867 195.6973572 304.5638733 182.2083435 296.4118958 177.4873657 295.1388855 180.8903503"/>
  <polyline class="st23" points="301.0420837 190.7287598 293.8720703 194.8657532 288.137085 191.5547485"/>
  <polyline class="st6" points="301.0420837 190.7287598 293.8720703 194.8657532 288.137085 191.5547485"/>
  <polyline class="st6" points="303.9103088 182.4492798 293.8503113 188.2832947 288.1152954 184.971283 298.7203064 178.8222656"/>
  <g class="st14">
    <path class="st23" d="M269.795105,212.0230713l24.5350037-14.1719971c1.0440063-.6560059,1.6879883-1.9859924,1.6940002-3.8529968.0100098-3.8609924-2.7149963-8.5840149-6.0759888-10.5230103-1.6800232-.9710083-3.2060242-1.0650024-4.3130188-.4339905l.0400085-.0200195-24.5410156,14.1700134"/>
    <path class="st6" d="M269.795105,212.0230713l24.5350037-14.1719971c1.0440063-.6560059,1.6879883-1.9859924,1.6940002-3.8529968.0100098-3.8609924-2.7149963-8.5840149-6.0759888-10.5230103-1.6800232-.9710083-3.2060242-1.0650024-4.3130188-.4339905l.0400085-.0200195-24.5410156,14.1700134"/>
    <path class="st23" d="M265.5026855,197.59198c3.3609924,1.9400024,6.0870056,6.6619873,6.0759888,10.5230103-.0109863,3.8619995-2.7549744,5.4259949-6.1159973,3.4859924-3.3599854-1.9410095-6.0859985-6.6629944-6.0759888-10.5240173.0109863-3.8609924,2.7550049-5.4249878,6.1159973-3.4849854"/>
    <path class="st6" d="M265.5026855,197.59198c3.3609924,1.9400024,6.0870056,6.6619873,6.0759888,10.5230103-.0109863,3.8619995-2.7549744,5.4259949-6.1159973,3.4859924-3.3599854-1.9410095-6.0859985-6.6629944-6.0759888-10.5240173.0109863-3.8609924,2.7550049-5.4249878,6.1159973-3.4849854Z"/>
    <path d="M265.3695068,199.6148682c2.3930054,1.382019,4.3280029,4.7340088,4.3209839,7.4840088-.0089722,2.7489929-1.9559937,3.8590088-4.348999,2.4769897-2.3919983-1.3809814-4.3279724-4.7330017-4.3209839-7.4819946.0090027-2.75,1.9570007-3.8599854,4.348999-2.4790039M265.3435059,208.9648743c2.0950012,1.2099915,3.8070068.2340088,3.8139954-2.1740112.007019-2.4079895-1.6950073-5.3539734-3.7900085-6.5639954-2.0950012-1.2089844-3.8069763-.2340088-3.8139954,2.1740112-.0069885,2.4069824,1.6950073,5.3540039,3.7900085,6.5639954"/>
    <polygon class="st23" points="257.3364868 218.4510803 259.3104858 217.2700806 262.2304993 213.1600952 259.3434753 205.7020874 253.5304871 202.3460693 251.556488 203.5270691 248.6364746 207.6320801 251.5234985 215.0960693 257.3364868 218.4510803"/>
    <polygon class="st11" points="257.3364868 218.4510803 259.3104858 217.2700806 262.2304993 213.1600952 259.3434753 205.7020874 253.5304871 202.3460693 251.556488 203.5270691 248.6364746 207.6320801 251.5234985 215.0960693 257.3364868 218.4510803"/>
    <polyline class="st11" points="251.5567932 203.5272827 257.3688049 206.8822937 260.2568054 214.3412781 257.336792 218.4512939"/>
    <g class="st24">
      <g class="st17">
        <g class="st15">
          <path class="st25" d="M254.4287109,215.3844604c2.1090088,1.2179871,3.8309937.2369995,3.8370056-2.1870117.0069885-2.4239807-1.7030029-5.3859863-3.8120117-6.6040039-2.1099854-1.21698-3.8259888-.2339783-3.8320007,2.1900024-.0069885,2.4240112,1.6970215,5.3830261,3.8070068,6.6010132"/>
        </g>
      </g>
    </g>
    <path class="st11" d="M254.4287109,215.3844604c2.1090088,1.2179871,3.8309937.2369995,3.8370056-2.1870117.0069885-2.4239807-1.7030029-5.3859863-3.8120117-6.6040039-2.1099854-1.21698-3.8259888-.2339783-3.8320007,2.1900024-.0069885,2.4240112,1.6970215,5.3830261,3.8070068,6.6010132"/>
    <path class="st23" d="M249.6188965,207.7044678c-2.901001-1.6750183-5.2609863-.322998-5.269989,3.0109863-.0090027,3.3330078,2.3349915,7.4020081,5.2349854,9.0760193,2.901001,1.6749878,5.2680054.3259888,5.2780151-3.007019.0090027-3.3329773-2.3430176-7.4060059-5.2430115-9.0799866M249.5899048,218.1434631c-2.1090088-1.2179871-3.8139954-4.177002-3.8070068-6.6010132.006012-2.4239807,1.7229919-3.4069824,3.8320007-2.1899719,2.1090088,1.2189941,3.8190002,4.1799927,3.8120117,6.6039734-.006012,2.4240112-1.7279968,3.4049988-3.8370056,2.1870117"/>
    <path class="st11" d="M249.5846863,219.7920837c2.8999939,1.6749878,5.2669983.3259888,5.276001-3.0069885.0100098-3.3330078-2.3420105-7.4060059-5.2420044-9.0810242-2.8999939-1.6749878-5.2609863-.321991-5.2709961,3.0120239-.0079956,3.3329773,2.3359985,7.401001,5.2369995,9.0759888"/>
    <path class="st11" d="M249.5899048,218.1434631c2.1090088,1.2179871,3.8309937.2369995,3.8370056-2.1870117.0069885-2.4239807-1.7030029-5.3849792-3.8120117-6.6039734-2.1090088-1.2170105-3.8259888-.2340088-3.8320007,2.1899719-.0069885,2.4240112,1.697998,5.3830261,3.8070068,6.6010132"/>
    <line class="st2" x1="247.0978088" y1="208.9571838" x2="238.191803" y2="214.1051941"/>
    <line class="st2" x1="251.9050903" y1="206.1028748" x2="249.2440796" y2="207.645874"/>
    <line class="st2" x1="262.0799866" y1="199.8786621" x2="255.8089905" y2="203.6736755"/>
    <line class="st2" x1="252.3562012" y1="218.3761597" x2="243.2792053" y2="223.795166"/>
    <line class="st2" x1="257.1839905" y1="215.6260681" x2="254.8389893" y2="217.0040588"/>
    <line class="st2" x1="267.8597107" y1="209.7561646" x2="262.2307129" y2="212.8521729"/>
    <path class="st11" d="M276.260498,183.2482605c1.7420044-1.9129944,4.6589966-2.1459961,7.9590149-.2409973,5.3129883,3.0669861,9.6199951,10.5270081,9.6029968,16.6329956-.0180054,6.105011-4.3530273,8.5759888-9.6660156,5.5079956-.3819885-.2210083-.7590027-.4639893-1.1289978-.7279968"/>
    <polygon points="278.1028137 183.0216675 274.6368103 187.2636719 275.5168152 181.8556824 278.1028137 183.0216675"/>
    <line class="st4" x1="229.5870056" y1="152.4824829" x2="280.1679993" y2="181.6884766"/>
    <line class="st4" x1="245.2351074" y1="207.8816833" x2="169.3651123" y2="164.0736694"/>
  </g>
  <g class="st16">
    <g class="st24">
      <g class="st22">
        <g class="st19">
          <path class="st25" d="M186.5711975,140.8916626v96.0400085l108.9759827,62.9230042v-96.0400085l-108.9759827-62.9230042ZM238.157196,226.2626648c-2.8150024-1.6260071-5.0899963-5.5740051-5.0820007-8.8089905.0100098-3.2350159,2.2999878-4.5490112,5.1149902-2.9230042,2.8150024,1.625,5.0980225,5.5780029,5.0890198,8.8139954-.0090027,3.2340088-2.3070068,4.5440063-5.1220093,2.9179993"/>
        </g>
      </g>
    </g>
    <path class="st11" d="M186.5711975,140.8916626v96.0400085l108.9759827,62.9230042v-96.0400085l-108.9759827-62.9230042ZM238.157196,226.2626648c-2.8150024-1.6260071-5.0899963-5.5740051-5.0820007-8.8089905.0100098-3.2350159,2.2999878-4.5490112,5.1149902-2.9230042,2.8150024,1.625,5.0980225,5.5780029,5.0890198,8.8139954-.0090027,3.2340088-2.3070068,4.5440063-5.1220093,2.9179993Z"/>
    <path class="st23" d="M63.3815918,258.395874l48.7229919-28.1319885c3.5500031-2.0510254,7.9250031-2.0510254,11.4760132,0l71.6650085,41.3789825c2.5619812,1.4790039,2.5619812,5.1760101,0,6.655014l-48.7230225,28.1319885c-3.5499878,2.0509949-7.9249878,2.0509949-11.4759827,0l-71.6650085-41.3789978c-2.5619965-1.4790039-2.5619965-5.1759949,0-6.6549988"/>
    <path class="st6" d="M63.3815918,258.395874l48.7229919-28.1319885c3.5500031-2.0510254,7.9250031-2.0510254,11.4760132,0l71.6650085,41.3789825c2.5619812,1.4790039,2.5619812,5.1760101,0,6.655014l-48.7230225,28.1319885c-3.5499878,2.0509949-7.9249878,2.0509949-11.4759827,0l-71.6650085-41.3789978c-2.5619965-1.4790039-2.5619965-5.1759949,0-6.6549988Z"/>
    <polygon class="st23" points="114.9750061 273.4685669 135.0490112 261.8775635 155.1240082 273.4685669 155.1240082 274.9705658 135.0490112 286.5615692 114.9750061 274.9705658 114.9750061 273.4685669"/>
    <polygon class="st11" points="114.9750061 273.4685669 135.0490112 261.8775635 155.1240082 273.4685669 155.1240082 274.9705658 135.0490112 286.5615692 114.9750061 274.9705658 114.9750061 273.4685669"/>
    <polyline class="st11" points="155.1240997 273.4685669 135.0500946 285.0595703 114.9750977 273.4685669"/>
    <path class="st23" d="M133.0359039,281.0362701l-12.8130035-7.3990021c-.7079926-.4080048-.7079926-1.4319916,0-1.8410034l12.8130035-7.3980103c1.2460022-.7189941,2.7819977-.7189941,4.0269928,0l12.8130035,7.3980103c.7089996.4090118.7089996,1.4329987,0,1.8410034l-12.8130035,7.3990021c-1.2459869.7189941-2.7809906.7189941-4.0269928,0"/>
    <path class="st11" d="M133.0359039,281.0362701l-12.8130035-7.3990021c-.7079926-.4080048-.7079926-1.4319916,0-1.8410034l12.8130035-7.3980103c1.2460022-.7189941,2.7819977-.7189941,4.0269928,0l12.8130035,7.3980103c.7089996.4090118.7089996,1.4329987,0,1.8410034l-12.8130035,7.3990021c-1.2459869.7189941-2.7809906.7189941-4.0269928,0Z"/>
    <path d="M111.5432892,237.2052612c1.2750092.7360229,1.2819977,1.9370117.0149994,2.6740112-1.2719879.7390137-3.345993.7390137-4.6210022.0020142-1.2809906-.7390137-1.2879944-1.9400024-.0149994-2.6790161,1.2670135-.7359924,3.3410034-.7359924,4.6210022.0029907M107.9942932,239.2672729c.6900024.3989868,1.8139954.3959961,2.4989929-.0020142.6870117-.3989868.6830139-1.0469971-.0079956-1.4459839-.6900024-.3980103-1.8079987-.3980103-2.4940033,0-.6859894.3989868-.6869965,1.0490112.003006,1.447998"/>
    <path d="M72.4925995,259.8111877c1.9520111,1.1260071,1.9670105,2.9620056.0230103,4.0910034-1.9390106,1.1269836-5.1119995,1.1269836-7.0640106,0-1.9559937-1.1289978-1.9609985-2.9649963-.022995-4.0910034,1.9440002-1.1300049,5.1069946-1.1300049,7.0639954,0M65.9806061,263.5951843c1.6589966.9570007,4.3540039.9570007,6.003006,0,1.6519928-.9609985,1.6389923-2.5190125-.0200043-3.4769897-1.6589966-.9580078-4.3500061-.9609985-6.003006,0-1.647995.9579773-1.6389923,2.5189819.0200043,3.4769897"/>
    <path d="M70.7359009,260.8288879c.9779968.5650024.9839935,1.4830017.0069885,2.0509949-.9720001.5650024-2.5579987.5650024-3.5370026,0-.9769897-.5650024-.9879913-1.4859924-.0159912-2.0509949.977005-.5680237,2.5679932-.5650024,3.5460052,0M67.7348938,262.572876c.6860046.3959961,1.7949982.3959961,2.4750061,0,.6819916-.3959961.6829987-1.0409851-.003006-1.4370117-.6849976-.394989-1.8040009-.394989-2.4850006,0-.6809998.3960266-.6730042,1.0410156.0130005,1.4370117"/>
    <path d="M121.6761932,231.1874695c1.9560089,1.1289978,1.9670105,2.9620056.0230103,4.0910034-1.9390106,1.1269836-5.1070099,1.1300049-7.0640106,0-1.9509888-1.1260071-1.9609985-2.9649963-.0219879-4.0910034,1.9429932-1.1300049,5.1119995-1.1270142,7.0629883,0M115.1641998,234.9714661c1.6640015.9599915,4.3540039.9570007,6.003006,0,1.647995-.9570007,1.6439972-2.5169983-.0200043-3.4769897-1.6589966-.9580078-4.3500061-.9550171-5.9980011.0029907-1.647995.9570007-1.6439972,2.5169983.0149994,3.473999"/>
    <path d="M119.9216003,232.2025757c.9829865.5679932.9839935,1.4889832.0119934,2.0539856s-2.5590057.5650024-3.5420074-.0029907c-.9769897-.5650024-.9829865-1.4830017-.0109863-2.0480042s2.5629883-.5679932,3.5410004-.0029907M116.9205933,233.9465637c.6900024.3989868,1.798996.3989868,2.4799957.0029907.6820068-.3959961.6820068-1.0409851-.0079956-1.4400024-.6849976-.394989-1.798996-.3929749-2.4799957.0030212s-.678009,1.0379944.0079956,1.4339905"/>
    <path d="M144.3047943,301.4177704c1.9560089,1.1299896,1.9670105,2.9619904.0230103,4.0910034-1.9390106,1.1269989-5.1070099,1.1299896-7.0640106,0-1.9509888-1.1260071-1.9609985-2.9640045-.022995-4.0910034,1.9440002-1.1300049,5.1119995-1.1269989,7.0639954,0M137.7928009,305.201767c1.6589966.9570007,4.3540039.9570007,6.003006,0,1.647995-.9570007,1.6389923-2.5189972-.0200043-3.477005-1.6589966-.9579926-4.3549957-.9579926-6.003006,0-1.647995.9580078-1.6389923,2.5200043.0200043,3.477005"/>
    <path d="M142.5509033,302.4332733c.977005.5650024.9869995,1.4860077.0110016,2.0540009-.9720001.5650024-2.5630035.5619965-3.5420074-.0029907-.9769897-.5650024-.9829865-1.4830017-.0109863-2.0480042.9759979-.5680084,2.5629883-.5680084,3.5419922-.003006M139.5489044,304.1772766c.6860046.3959961,1.7949982.3959961,2.4759979,0s.6820068-1.0410004-.0039978-1.4369965c-.6849976-.3950043-1.798996-.3930054-2.4799957.0029907-.6809998.3950043-.678009,1.0380096.0079956,1.4340057"/>
    <path d="M193.1773987,272.923172c1.9519958,1.1259918,1.9620056,2.9639893.0230103,4.0910034-1.9440002,1.1299896-5.1119995,1.1269989-7.0639954,0-1.9559937-1.1290131-1.9660034-2.9620056-.0220032-4.0910034,1.9379883-1.1269989,5.1059875-1.1300049,7.0629883,0M186.6654053,276.7071686c1.6589966.9570007,4.3500061.9600067,6.0029907,0,1.6480103-.9579926,1.6390076-2.5189972-.019989-3.477005-1.6589966-.9579926-4.3540039-.9579926-6.0029907,0-1.6520081.9600067-1.6390076,2.5190125.019989,3.477005"/>
    <path d="M191.4210205,273.947464c.9779968.5650024.9839783,1.4830017.0119934,2.048996-.9769897.5670013-2.5639954.5670013-3.5419922.0020142-.9779968-.5650024-.9880066-1.4860077-.0119934-2.0540009.9719849-.5650024,2.5639954-.5620117,3.5419922.0029907M188.4200134,275.6914673c.6860046.3959961,1.7990112.3930054,2.480011-.0019989.6819763-.3959961.6779785-1.0390015-.0080261-1.4349976-.6849976-.3950043-1.7939758-.3950043-2.4749756,0-.6820068.3959961-.6830139,1.0419922.0029907,1.4369965"/>
    <path class="st11" d="M112.5061035,222.5308838c.003006.4849854-.3119965.9689941-.9450073,1.3370056-1.2719879.7399902-3.345993.7399902-4.6269989,0-.6369934-.3680115-.9579926-.8520203-.9599915-1.3370056"/>
    <line class="st2" x1="106.3721008" y1="223.4717712" x2="106.3721008" y2="238.5407715"/>
    <line class="st2" x1="112.1078033" y1="223.4717712" x2="112.1078033" y2="238.5407715"/>
    <polygon class="st5" points="104.658905 220.3303833 109.2389069 222.9743958 115.832901 219.1663818 111.2528992 216.5223694 104.658905 220.3303833"/>
    <line class="st11" x1="105.9741974" y1="221.0897827" x2="105.9741974" y2="222.5307922"/>
    <line class="st11" x1="112.5061035" y1="221.0897827" x2="112.5061035" y2="222.5307922"/>
    <path class="st23" d="M211.6976929,242.3034668l-2.9249878-7.3930054-3.6060181-2.0830078,13.0450134-7.5390015c.7399902-.4199829,1.7609863-.3569946,2.8859863.2930298,1.678009.9679871,3.1170044,2.9719849,3.7350159,4.9989929.2109985.6879883.3259888,1.3779907.3239746,2.0310059-.0019836.6429749-.1159973,1.1889954-.322998,1.6289978-.2070007.4440002-.5089722.7789917-.8799744.9919739l-12.256012,7.0710144Z"/>
    <path class="st11" d="M211.6976929,242.3034668l-2.9249878-7.3930054-3.6060181-2.0830078,13.0450134-7.5390015c.7399902-.4199829,1.7609863-.3569946,2.8859863.2930298,1.678009.9679871,3.1170044,2.9719849,3.7350159,4.9989929.2109985.6879883.3259888,1.3779907.3239746,2.0310059-.0019836.6429749-.1159973,1.1889954-.322998,1.6289978-.2070007.4440002-.5089722.7789917-.8799744.9919739l-12.256012,7.0710144Z"/>
    <path class="st9" d="M216.5776062,226.2834778c.6560059-.5440063,1.6719971-.6579895,2.8940125-.2130127,2.4359741.8870239,4.7769775,3.6750183,5.21698,6.2190247.2210083,1.2709961-.0749817,2.243988-.7299805,2.7890015"/>
    <path class="st9" d="M215.1276855,227.1236572c.6560059-.5440063,1.6719971-.6579895,2.8940125-.2130127,2.4359741.8870239,4.776001,3.6750183,5.21698,6.2190247.2210083,1.2709961-.0749817,2.243988-.7299805,2.7890015"/>
    <path class="st9" d="M213.677887,227.9636841c.6560059-.5440063,1.6719971-.6570129,2.8930054-.2130127,2.4369812.8870239,4.7770081,3.6750183,5.2179871,6.2190247.2200012,1.2709961-.0749817,2.243988-.7299805,2.7890015"/>
    <path class="st9" d="M212.2272034,228.8041687c.6560059-.5440063,1.6719971-.6579895,2.8940125-.2130127,2.4369812.8870239,4.776001,3.6750183,5.21698,6.2190247.2210083,1.2709961-.0740051,2.243988-.7290039,2.7890015"/>
    <path class="st9" d="M210.7774048,229.6442566c.6560059-.5440063,1.6719971-.6579895,2.8940125-.2130127,2.4369812.8870239,4.776001,3.6750183,5.21698,6.2190247.2210083,1.2709961-.0749817,2.243988-.7290039,2.7890015"/>
    <path class="st9" d="M209.3274841,230.4842834c.6560059-.5440063,1.6719971-.6570129,2.8930054-.2130127,2.4369812.8870239,4.7770081,3.6750183,5.2179871,6.2190247.2210083,1.2709961-.0749817,2.243988-.7299805,2.7890015"/>
    <path class="st9" d="M207.877594,231.3243713c.6560059-.5429993,1.6719971-.6570129,2.8940125-.2130127,2.4359741.8870239,4.776001,3.6750183,5.21698,6.2190247.2200012,1.2709961-.0749817,2.243988-.7299805,2.7890015"/>
    <path class="st9" d="M206.427002,232.164856c.6560059-.5440063,1.6719971-.6579895,2.8930054-.2130127,2.4379883.8870239,4.7770081,3.6750183,5.2179871,6.2190247.2210083,1.2709961-.0740051,2.243988-.7290039,2.7890015"/>
    <path class="st9" d="M204.9771118,233.0048828c.6560059-.5440063,1.6719971-.6579895,2.8930054-.2130127,2.4379883.8870239,4.7770081,3.6750183,5.2179871,6.2190247.2210083,1.2709961-.0749817,2.243988-.7290039,2.7890015"/>
    <path class="st3" d="M216.5776062,226.2834778c.6560059-.5440063,1.6719971-.6579895,2.8940125-.2130127,2.4359741.8870239,4.7769775,3.6750183,5.21698,6.2190247.2210083,1.2709961-.0749817,2.243988-.7299805,2.7890015"/>
    <path class="st3" d="M215.1276855,227.1236572c.6560059-.5440063,1.6719971-.6579895,2.8940125-.2130127,2.4359741.8870239,4.776001,3.6750183,5.21698,6.2190247.2210083,1.2709961-.0749817,2.243988-.7299805,2.7890015"/>
    <path class="st3" d="M213.677887,227.9636841c.6560059-.5440063,1.6719971-.6570129,2.8930054-.2130127,2.4369812.8870239,4.7770081,3.6750183,5.2179871,6.2190247.2200012,1.2709961-.0749817,2.243988-.7299805,2.7890015"/>
    <path class="st3" d="M212.2272034,228.8041687c.6560059-.5440063,1.6719971-.6579895,2.8940125-.2130127,2.4369812.8870239,4.776001,3.6750183,5.21698,6.2190247.2210083,1.2709961-.0740051,2.243988-.7290039,2.7890015"/>
    <path class="st3" d="M210.7774048,229.6442566c.6560059-.5440063,1.6719971-.6579895,2.8940125-.2130127,2.4369812.8870239,4.776001,3.6750183,5.21698,6.2190247.2210083,1.2709961-.0749817,2.243988-.7290039,2.7890015"/>
    <path class="st3" d="M209.3274841,230.4842834c.6560059-.5440063,1.6719971-.6570129,2.8930054-.2130127,2.4369812.8870239,4.7770081,3.6750183,5.2179871,6.2190247.2210083,1.2709961-.0749817,2.243988-.7299805,2.7890015"/>
    <path class="st3" d="M207.877594,231.3243713c.6560059-.5429993,1.6719971-.6570129,2.8940125-.2130127,2.4359741.8870239,4.776001,3.6750183,5.21698,6.2190247.2200012,1.2709961-.0749817,2.243988-.7299805,2.7890015"/>
    <path class="st3" d="M206.427002,232.164856c.6560059-.5440063,1.6719971-.6579895,2.8930054-.2130127,2.4379883.8870239,4.7770081,3.6750183,5.2179871,6.2190247.2210083,1.2709961-.0740051,2.243988-.7290039,2.7890015"/>
    <path class="st3" d="M204.9771118,233.0048828c.6560059-.5440063,1.6719971-.6579895,2.8930054-.2130127,2.4379883.8870239,4.7770081,3.6750183,5.2179871,6.2190247.2210083,1.2709961-.0749817,2.243988-.7290039,2.7890015"/>
    <polygon class="st23" points="206.76651 247.6588745 208.740509 246.4778748 211.661499 242.3678894 208.7734985 234.9098816 202.9615173 231.5538635 200.9875183 232.7348633 198.0675049 236.8398743 200.9544983 244.3038635 206.76651 247.6588745"/>
    <polygon class="st11" points="206.76651 247.6588745 208.740509 246.4778748 211.661499 242.3678894 208.7734985 234.9098816 202.9615173 231.5538635 200.9875183 232.7348633 198.0675049 236.8398743 200.9544983 244.3038635 206.76651 247.6588745"/>
    <polyline class="st11" points="200.9874878 232.7350769 206.7994995 236.0910645 209.6864929 243.5490723 206.7664795 247.6590881"/>
    <path class="st8" d="M203.8763123,240.1956787l-19.2789917,11.1319885c-4.355011,2.5140076-9.803009,2.1210022-13.7510071-.9919739l-41.4830017-32.6990051c-3.947998-3.1130066-9.3959961-3.506012-13.7510071-.9909973l-2.072998,1.1959839"/>
    <line class="st7" x1="203.3020935" y1="240.5275574" x2="190.5470886" y2="247.891571"/>
    <line class="st10" x1="203.3020935" y1="240.5275574" x2="196.1340942" y2="244.6665649"/>
    <polygon class="st23" points="160.8596954 267.5957642 169.4626923 262.6277771 178.0657043 267.5957642 178.0657043 268.3467712 169.4626923 273.3147583 160.8596954 268.3467712 160.8596954 267.5957642"/>
    <polygon class="st11" points="160.8596954 267.5957642 169.4626923 262.6277771 178.0657043 267.5957642 178.0657043 268.3467712 169.4626923 273.3147583 160.8596954 268.3467712 160.8596954 267.5957642"/>
    <polyline class="st11" points="178.0662842 267.5957642 169.4632874 272.5637665 160.8602905 267.5957642"/>
    <polygon class="st23" points="140.7850952 289.1225739 160.8591003 277.5305786 172.3310852 284.1545715 172.3310852 284.9055786 152.2560883 296.4965668 140.7850952 289.8735809 140.7850952 289.1225739"/>
    <polygon class="st11" points="140.7850952 289.1225739 160.8591003 277.5305786 172.3310852 284.1545715 172.3310852 284.9055786 152.2560883 296.4965668 140.7850952 289.8735809 140.7850952 289.1225739"/>
    <polyline class="st11" points="172.3309021 284.1546783 152.256897 295.7456818 140.7848969 289.1226807"/>
    <polygon class="st23" points="126.446106 251.037262 140.7851105 242.7572632 160.8601074 254.3492737 160.8601074 255.1002502 146.5201111 263.3792725 126.446106 251.788269 126.446106 251.037262"/>
    <polygon class="st11" points="126.446106 251.037262 140.7851105 242.7572632 160.8601074 254.3492737 160.8601074 255.1002502 146.5201111 263.3792725 126.446106 251.788269 126.446106 251.037262"/>
    <polyline class="st11" points="160.8594055 254.3490601 146.5214081 262.6280518 126.4454041 251.0370483"/>
    <polygon class="st23" points="103.5034943 247.7256775 117.8424988 239.4456787 129.3134918 246.0696716 129.3134918 246.8206787 114.9744873 255.1006775 103.5034943 248.4766846 103.5034943 247.7256775"/>
    <polygon class="st11" points="103.5034943 247.7256775 117.8424988 239.4456787 129.3134918 246.0696716 129.3134918 246.8206787 114.9744873 255.1006775 103.5034943 248.4766846 103.5034943 247.7256775"/>
    <polyline class="st11" points="129.3139038 246.0696716 114.9748993 254.3496704 103.5039062 247.7256775"/>
    <path class="st23" d="M229.6029968,218.4999695c-3.28302-1.894989-5.9530029-.3649902-5.9640198,3.4079895-.0099792,3.7720032,2.6430054,8.3770142,5.9250183,10.2730103,3.2839966,1.894989,5.9620056.3690186,5.9729919-3.4039917.0110168-3.7720032-2.6499939-8.381012-5.9339905-10.2770081M233.6579895,224.9659729l.4689941,1.5580139-.5789795.21698.0109863,1.6750183.5589905.9789734-.4039917.9100037-.7709961-.4700012-1.0660095.6370239.0280151.9099731-1.0209961-.0899963-.4950256-.946991-1.5820007-.8959961-.5159912.3559875-.9889832-1.039978.0269775-.8780212-1.1099854-1.9349976-.7749939-.4249878-.3970032-1.3760071.5709839-.2659912.026001-1.7600098-.5639954-.9159851.5379944-.8830261.6809998.4450073,1.0559998-.572998v-.9049988l1.0420227.1239929.5179749.9609985,1.4179993.8310242.5250244-.3529968,1.0820007,1.1469727-.0480042.855011,1.0050049,1.7220154.7609863.3859863Z"/>
    <path class="st11" d="M229.5643005,232.1809692c3.2829895,1.894989,5.9620056.368988,5.9729919-3.4030151.0110168-3.7729797-2.651001-8.3829956-5.9339905-10.2779846-3.2820129-1.8959961-5.95401-.3649902-5.9639893,3.4079895-.0110168,3.7730103,2.6419983,8.3780212,5.9249878,10.2730103"/>
    <path class="st9" d="M230.8587036,220.8558655l-.5249939.3529968c-.2400208-.1910095-.4840088-.3609924-.7330017-.5050049-.223999-.1300049-.4519958-.2380066-.6860046-.3259888l-.5180054-.9609985c-.3670044-.098999-.7149963-.1400146-1.0409851-.1239929v.9049988c-.4190063.0799866-.7700195.276001-1.0559998.572998l-.7660217-.4990234c-.190979.2630005-.3439941.5760193-.4530029.9370117l.5630188.9160156c-.0580139.2829895-.0880127.5809937-.0889893.8859863-.0010071.2799988.0239868.5759888.0629883.8739929l-.5700073.2660217c.0939941.4579773.2269897.9189758.3959961,1.3759766l.7749939.4260254c.2930298.6779785.6740112,1.3429871,1.1100159,1.9339905l-.0270081.8779907c.3099976.3770142.6400146.7260132.9890137,1.0400085l.5169983-.3560181c.2519836.1990051.5029907.3730164.7569885.5190125.2730103.1579895.5480042.2839966.8250122.3770142l.493988.946991c.3600159.0870056.7030029.1170044,1.0220032.0910034v-.0010071l-.0289917-.9100037c.4230042-.0889893.7810059-.3049927,1.0660095-.6369934l.7709961.4710083c.17099-.2610168.3079834-.5650024.4049988-.9110107l-.559021-.9790039c.0400085-.2389832.0620117-.4899902.0630188-.7479858,0-.2920227-.0240173-.6040039-.0750122-.927002l.57901-.2170105c-.1080017-.5190125-.2669983-1.0419922-.4680176-1.5580139l-.7619934-.3859863c-.2720032-.6029968-.6080017-1.1830139-1.0039978-1.7210083l.0469971-.8559875c-.3370056-.4179993-.6990051-.8040161-1.0809937-1.1470032Z"/>
    <path class="st9" d="M230.8587036,220.8558655l-.5249939.3529968c-.2400208-.1910095-.4840088-.3609924-.7330017-.5050049-.223999-.1300049-.4519958-.2380066-.6860046-.3259888l-.5180054-.9609985c-.3670044-.098999-.7149963-.1400146-1.0409851-.1239929v.9049988c-.4190063.0799866-.7700195.276001-1.0559998.572998l-.7660217-.4990234c-.190979.2630005-.3439941.5760193-.4530029.9370117l.5630188.9160156c-.0580139.2829895-.0880127.5809937-.0889893.8859863-.0010071.2799988.0239868.5759888.0629883.8739929l-.5700073.2660217c.0939941.4579773.2269897.9189758.3959961,1.3759766l.7749939.4260254c.2930298.6779785.6740112,1.3429871,1.1100159,1.9339905l-.0270081.8779907c.3099976.3770142.6400146.7260132.9890137,1.0400085l.5169983-.3560181c.2519836.1990051.5029907.3730164.7569885.5190125.2730103.1579895.5480042.2839966.8250122.3770142l.493988.946991c.3600159.0870056.7030029.1170044,1.0220032.0910034v-.0010071l-.0289917-.9100037c.4230042-.0889893.7810059-.3049927,1.0660095-.6369934l.7709961.4710083c.17099-.2610168.3079834-.5650024.4049988-.9110107l-.559021-.9790039c.0400085-.2389832.0620117-.4899902.0630188-.7479858,0-.2920227-.0240173-.6040039-.0750122-.927002l.57901-.2170105c-.1080017-.5190125-.2669983-1.0419922-.4680176-1.5580139l-.7619934-.3859863c-.2720032-.6029968-.6080017-1.1830139-1.0039978-1.7210083l.0469971-.8559875c-.3370056-.4179993-.6990051-.8040161-1.0809937-1.1470032Z"/>
    <line class="st2" x1="228.1539917" y1="219.9412842" x2="219.2509766" y2="225.0262756"/>
    <line class="st2" x1="233.6448059" y1="229.3336792" x2="224.467804" y2="234.8086853"/>
    <line class="st2" x1="228.1539917" y1="219.9412842" x2="219.2509766" y2="225.0262756"/>
    <line class="st2" x1="233.6448059" y1="229.3336792" x2="224.467804" y2="234.8086853"/>
    <line class="st2" x1="237.1452026" y1="214.7996826" x2="230.59021" y2="218.5436707"/>
    <line class="st2" x1="242.4930115" y1="224.2659607" x2="236.125" y2="228.0649719"/>
    <path class="st23" d="M302.0687866,107.7739563c0,3.6019897-2.9200134,6.5220032-6.5209961,6.5220032-3.6010132,0-6.5220032-2.9200134-6.5220032-6.5220032s2.92099-6.5220032,6.5220032-6.5220032c3.6009827,0,6.5209961,2.9200134,6.5209961,6.5220032"/>
    <path class="st1" d="M302.0687866,107.7739563c0,3.6019897-2.9200134,6.5220032-6.5209961,6.5220032-3.6010132,0-6.5220032-2.9200134-6.5220032-6.5220032s2.92099-6.5220032,6.5220032-6.5220032c3.6009827,0,6.5209961,2.9200134,6.5209961,6.5220032Z"/>
  </g>
  <text class="st27" transform="translate(292.7978241 111.3989868)"><tspan x="0" y="0">5</tspan></text>
  <g class="st18">
    <path class="st23" d="M175.885498,164.0738831c0,3.6019897-2.9200134,6.5209961-6.5209961,6.5209961-3.602005,0-6.5220032-2.9190063-6.5220032-6.5209961s2.9199982-6.5220032,6.5220032-6.5220032c3.6009827,0,6.5209961,2.9200134,6.5209961,6.5220032"/>
    <path class="st1" d="M175.885498,164.0738831c0,3.6019897-2.9200134,6.5209961-6.5209961,6.5209961-3.602005,0-6.5220032-2.9190063-6.5220032-6.5209961s2.9199982-6.5220032,6.5220032-6.5220032c3.6009827,0,6.5209961,2.9200134,6.5209961,6.5220032Z"/>
  </g>
  <text class="st27" transform="translate(166.6142304 167.6987915)"><tspan x="0" y="0">3</tspan></text>
  <line class="st4" x1="94.9002991" y1="210.3898621" x2="108.3862915" y2="218.1768494"/>
  <g class="st21">
    <path class="st23" d="M101.4217987,210.3890686c0,3.6019897-2.9199982,6.5209961-6.5209961,6.5209961-3.602005,0-6.5220032-2.9190063-6.5220032-6.5209961s2.9199982-6.5209961,6.5220032-6.5209961c3.6009979,0,6.5209961,2.9190063,6.5209961,6.5209961"/>
    <path class="st1" d="M101.4217987,210.3890686c0,3.6019897-2.9199982,6.5209961-6.5209961,6.5209961-3.602005,0-6.5220032-2.9190063-6.5220032-6.5209961s2.9199982-6.5209961,6.5220032-6.5209961c3.6009979,0,6.5209961,2.9190063,6.5209961,6.5209961Z"/>
  </g>
  <text class="st27" transform="translate(92.1503632 214.0142212)"><tspan x="0" y="0">1</tspan></text>
  <line class="st4" x1="143.553894" y1="182.2883606" x2="218.4408875" y2="225.5283508"/>
  <g class="st20">
    <path class="st23" d="M150.0755005,182.2883606c0,3.6019897-2.9199982,6.5220032-6.5209961,6.5220032-3.602005,0-6.5220032-2.9200134-6.5220032-6.5220032s2.9199982-6.5209961,6.5220032-6.5209961c3.6009979,0,6.5209961,2.9190063,6.5209961,6.5209961"/>
    <path class="st1" d="M150.0755005,182.2883606c0,3.6019897-2.9199982,6.5220032-6.5209961,6.5220032-3.602005,0-6.5220032-2.9200134-6.5220032-6.5220032s2.9199982-6.5209961,6.5220032-6.5209961c3.6009979,0,6.5209961,2.9190063,6.5209961,6.5209961Z"/>
  </g>
  <text class="st27" transform="translate(140.8041718 185.9136353)"><tspan x="0" y="0">2</tspan></text>
  <g class="st13">
    <path class="st23" d="M236.1081848,152.4824829c0,3.6019897-2.9200134,6.5209961-6.5209961,6.5209961-3.6010132,0-6.5220032-2.9190063-6.5220032-6.5209961s2.92099-6.5220032,6.5220032-6.5220032c3.6009827,0,6.5209961,2.9200134,6.5209961,6.5220032"/>
    <path class="st1" d="M236.1081848,152.4824829c0,3.6019897-2.9200134,6.5209961-6.5209961,6.5209961-3.6010132,0-6.5220032-2.9190063-6.5220032-6.5209961s2.92099-6.5220032,6.5220032-6.5220032c3.6009827,0,6.5209961,2.9200134,6.5209961,6.5220032Z"/>
  </g>
  <text class="st27" transform="translate(226.8368866 156.1079712)"><tspan x="0" y="0">4</tspan></text>
</svg>