<svg id="Layer_1" data-name="Layer 1" xmlns="http://www.w3.org/2000/svg" width="50mm" height="50mm" viewBox="0 0 141.73228 141.73228">
  <defs>
    <style>
      .cls-1 {
        fill: #fff;
      }
    </style>
  </defs>
  <path class="cls-1" d="M120.397,80.45862c-.56812-5.90741-3.22376-11.16309-6.99487-13.93268a17.2717,17.2717,0,0,0-3.24659-6.31354,19.36931,19.36931,0,0,0-6.892-13.02014,7.276,7.276,0,0,0,1.5957-1.944c4.57764-2.04449,7.80505-6.33771,8.17944-9.5307a12.52565,12.52565,0,0,0,3.95667-8.20483,7.84592,7.84592,0,0,0-.69983-3.69361,7.0186,7.0186,0,0,0,1.82922-7.24414c-1.3667-3.95892-6.15515-6.52856-12.58679-6.80115A10.13627,10.13627,0,0,0,98.5294,7.374a16.20466,16.20466,0,0,0-3.78357.46576,8.61244,8.61244,0,0,0-3.719-.75317,14.55484,14.55484,0,0,0-7.09521,1.934,6.51215,6.51215,0,0,0-.85645-.05542c-3.19287-.00031-6.38476,2.19989-8.00281,3.51123a24.2617,24.2617,0,0,0-4.20629,4.38226,24.27632,24.27632,0,0,0-4.20594-4.38195C65.042,11.16541,61.8502,8.96552,58.65745,8.96521a6.51851,6.51851,0,0,0-.85669.05542,14.55766,14.55766,0,0,0-7.095-1.934,8.61392,8.61392,0,0,0-3.71924.75317A16.20218,16.20218,0,0,0,43.2031,7.374,10.137,10.137,0,0,0,36.19443,9.7738c-6.432.27259-11.22033,2.84223-12.587,6.80146a7.01778,7.01778,0,0,0,1.8291,7.24383A7.84785,7.84785,0,0,0,24.737,27.513a12.5249,12.5249,0,0,0,3.95666,8.20453c.37439,3.19324,3.60181,7.48621,8.17945,9.5307a7.27714,7.27714,0,0,0,1.59533,1.944,19.37063,19.37063,0,0,0-6.8916,13.02014,17.27006,17.27006,0,0,0-3.24658,6.31354c-3.77112,2.76959-6.42676,8.02527-6.99487,13.93237-.56495,5.87171,1.04589,11.35327,4.3247,14.8255a20.98908,20.98908,0,0,0,3.56519,8.18665,21.30221,21.30221,0,0,0,5.37793,12.42627,22.01543,22.01543,0,0,0,11.85913,7.04736,28.71278,28.71278,0,0,0,9.48462,5.8714,20.88132,20.88132,0,0,0,14.91907,5.83014,20.88341,20.88341,0,0,0,14.91931-5.83014,28.719,28.719,0,0,0,9.48462-5.8714,22.01607,22.01607,0,0,0,11.85888-7.04736,21.30377,21.30377,0,0,0,5.37793-12.426,20.98319,20.98319,0,0,0,3.56519-8.18695C119.35068,91.81158,120.96152,86.33,120.397,80.45862ZM98.24607,62.50189a35.23022,35.23022,0,0,1-10.324-8.65381c-3.70264-4.39917-1.29615-6.35876,4.53637-5.30212a15.74273,15.74273,0,0,1,10.24536,8.59912C104.7761,62.65771,103.16184,65.30823,98.24607,62.50189ZM82.8884,15.64563a.5072.5072,0,0,1,.64429.53876c-.16089,1.517.75684,1.32592.97363,1.05633,2.38916-2.97064,4.9198-3.64654,7.18555-3.447a.50734.50734,0,0,1,.34705.81812c-.90027,1.33532.06921,1.58923.4281,1.34936,3.677-2.299,7.18457-2.30316,8.53076-1.33752a.50643.50643,0,0,1,.03027.78741c-1.36084,1.1593-.599,1.73633-.11841,1.56043,3.733-1.31745,8.88672-.15192,10.68457,1.3681a.511.511,0,0,1,.01282.77319,10.12583,10.12583,0,0,0-3.89831,6.80017c-.10132.89411,1.38232.706,2.00842.54493a.50687.50687,0,0,1,.63159.47338c.05652,2.14911-1.97595,4.51142-5.00012,6.53156-.405.27057-.34741.91974.5769.94366a.50088.50088,0,0,1,.43018.75446c-1.07837,2.00171-2.54492,3.88635-7.54,5.18054a.51178.51178,0,0,0-.07056.96564.48973.48973,0,0,1,.15943.86529c-4.97339,4.27277-17.5802,2.58832-19.18042-4.603a.50445.50445,0,0,1,.0907-.41138,47.92122,47.92122,0,0,1,20.90612-15.90662.39747.39747,0,0,0-.19677-.76538,34.18641,34.18641,0,0,0-22.704,13.68738.51186.51186,0,0,1-.65052.14752C69.0886,30.14886,75.72446,17.82947,82.8884,15.64563Zm-12.02221,31.852A15.47291,15.47291,0,0,1,80.656,50.94336c7.02979,5.84277-1.02441,9.97894-9.78979,9.97894s-16.81958-4.13617-9.7898-9.97894A15.47272,15.47272,0,0,1,70.86619,47.49762ZM35.37669,35.161a.50082.50082,0,0,1,.43-.75446c.92444-.02392.98205-.67309.5769-.94366-3.024-2.02014-5.05651-4.38245-5.00012-6.53156a.50692.50692,0,0,1,.63159-.47338c.6261.16107,2.10987.34918,2.0083-.54493a10.126,10.126,0,0,0-3.89807-6.80017.51093.51093,0,0,1,.0127-.77319c1.79773-1.52,6.95154-2.68555,10.68469-1.3681.48047.1759,1.24219-.40113-.11841-1.56043a.50651.50651,0,0,1,.03-.78741c1.34644-.96564,4.85376-.96149,8.53089,1.33752.359.23987,1.32836-.014.4281-1.34936a.50737.50737,0,0,1,.34692-.81812c2.26587-.19952,4.79651.47638,7.18567,3.447.2168.26959,1.13464.46063.97375-1.05633a.50717.50717,0,0,1,.64429-.53876c7.16394,2.18384,13.79968,14.50323,5.71875,18.67535a.512.512,0,0,1-.65063-.14752A34.18617,34.18617,0,0,0,41.20823,20.48608a.3975.3975,0,0,0-.1969.76538A47.92184,47.92184,0,0,1,61.91758,37.15808a.50486.50486,0,0,1,.09058.41138c-1.60022,7.19128-14.20691,8.87573-19.1803,4.603a.48966.48966,0,0,1,.15942-.86529.51182.51182,0,0,0-.07056-.96564C37.92161,39.0473,36.45505,37.16266,35.37669,35.161Zm3.65173,21.98413A15.74338,15.74338,0,0,1,49.27366,48.546c5.83264-1.05664,8.23926.90295,4.5365,5.30212a35.23086,35.23086,0,0,1-10.3241,8.65381C38.57053,65.30823,36.95628,62.65771,39.02842,57.14508ZM28.86008,87.77631a15.73776,15.73776,0,0,1,1.16822-13.392c2.59716-4.41907,5.21118-4.24311,6.24878-.49945a23.47963,23.47963,0,0,1-1.35315,15.47528C33.00059,93.18311,30.595,91.89117,28.86008,87.77631Zm18.7284,28.62329A15.64466,15.64466,0,0,1,35.82,102.43652C36.79514,79.749,69.49265,120.2655,47.58848,116.3996Zm.66552-28.257c-5.48327-3.16577-6.9342-10.918-3.24084-17.31513,3.69336-6.397,11.13232-9.0166,16.6156-5.85083,5.48328,3.16572,6.93433,10.918,3.241,17.31507C61.17625,88.68884,53.737,91.30841,48.254,88.14264Zm31.76185,36.91565a15.6585,15.6585,0,0,1-18.29956,0c-5.43311-3.75195.03283-8.069,9.1499-8.069C79.98313,116.98932,85.4492,121.30634,80.01585,125.05829Zm-9.14966-13.75336c-7.02906,0-12.72754-4.88428-12.72754-10.9093s5.69848-10.90942,12.72754-10.90942,12.72754,4.8844,12.72754,10.90942S77.89524,111.30493,70.86619,111.30493Zm5.99634-29.01318c-3.69336-6.3971-2.24219-14.14935,3.241-17.31507,5.48316-3.16577,12.92237-.5462,16.61572,5.85083,3.69336,6.39716,2.24219,14.14936-3.241,17.31513S80.55588,88.68884,76.86253,82.29175ZM94.14378,116.3996c-21.90418,3.8659,10.79345-36.65064,11.76855-13.96308A15.64477,15.64477,0,0,1,94.14378,116.3996Zm18.72851-28.62329c-1.73511,4.11486-4.14062,5.4068-6.064,1.5838a23.47873,23.47873,0,0,1-1.353-15.47528c1.03735-3.74366,3.65137-3.91962,6.24853.49945A15.73693,15.73693,0,0,1,112.87229,87.77631Z"/>
</svg>
